<svg width="21" height="20" viewBox="0 0 21 20" fill="none" xmlns="http://www.w3.org/2000/svg">
<path d="M15 11.4055H17.0156V14.4055H20.0156V16.3743H17.0156V19.3743H15V16.3743H12V14.4055H15V11.4055ZM9 0.389893C10.4375 0.389893 11.7734 0.56958 13.0078 0.928955C14.2422 1.28833 15.2188 1.77271 15.9375 2.38208C16.6562 2.99146 17.0156 3.66333 17.0156 4.39771C17.0156 5.13208 16.6562 5.80396 15.9375 6.41333C15.2188 7.02271 14.2422 7.50708 13.0078 7.86646C11.7734 8.22583 10.4375 8.40552 9 8.40552C7.5625 8.40552 6.22656 8.22583 4.99219 7.86646C3.75781 7.50708 2.78125 7.02271 2.0625 6.41333C1.34375 5.80396 0.984375 5.13208 0.984375 4.39771C0.984375 3.66333 1.34375 2.99146 2.0625 2.38208C2.78125 1.77271 3.75781 1.28833 4.99219 0.928955C6.22656 0.56958 7.5625 0.389893 9 0.389893ZM0.984375 6.38989C0.984375 7.10864 1.34375 7.77271 2.0625 8.38208C2.78125 8.99146 3.75781 9.47583 4.99219 9.83521C6.22656 10.1946 7.5625 10.3743 9 10.3743C10.4375 10.3743 11.7734 10.1946 13.0078 9.83521C14.2422 9.47583 15.2188 8.99146 15.9375 8.38208C16.6562 7.77271 17.0156 7.10864 17.0156 6.38989V9.48364L15.9844 9.38989C14.7031 9.38989 13.5547 9.75708 12.5391 10.4915C11.5234 11.2258 10.7969 12.1711 10.3594 13.3274L9 13.3743C7.5625 13.3743 6.22656 13.1946 4.99219 12.8352C3.75781 12.4758 2.78125 11.9915 2.0625 11.3821C1.34375 10.7727 0.984375 10.1086 0.984375 9.38989V6.38989ZM0.984375 11.4055C0.984375 12.1243 1.34375 12.7883 2.0625 13.3977C2.78125 14.0071 3.75781 14.4915 4.99219 14.8508C6.22656 15.2102 7.5625 15.3899 9 15.3899H9.98438C9.98438 16.4211 10.2344 17.3899 10.7344 18.2961L9 18.3899C7.5625 18.3899 6.22656 18.2102 4.99219 17.8508C3.75781 17.4915 2.78125 17.0071 2.0625 16.3977C1.34375 15.7883 0.984375 15.1243 0.984375 14.4055V11.4055Z" fill="#888888"/>
</svg>
