<svg width="30" height="30" viewBox="0 0 30 30" fill="none" xmlns="http://www.w3.org/2000/svg">
<rect width="30" height="30" rx="15" fill="#1AB394"/>
<path d="M21.0118 13.4883C21.3633 14.0273 21.4454 14.8125 21.2579 15.8438C21.0938 16.7578 20.754 17.7539 20.2383 18.832C19.7696 19.8398 19.2481 20.7012 18.6739 21.416C18.0997 22.1309 17.6192 22.4883 17.2325 22.4883C16.8458 22.4883 16.5235 22.4414 16.2657 22.3477C16.1016 22.2773 15.9141 22.1719 15.7032 22.0312C15.5625 21.9375 15.4454 21.8672 15.3516 21.8203C15.2579 21.7734 15.1407 21.75 15 21.75C14.8594 21.75 14.7422 21.7734 14.6485 21.8203C14.5547 21.8672 14.4375 21.9375 14.2969 22.0312C14.086 22.1719 13.8985 22.2773 13.7344 22.3477C13.4766 22.4414 13.1543 22.4883 12.7676 22.4883C12.3809 22.4883 11.9004 22.1309 11.3262 21.416C10.752 20.7012 10.2305 19.8398 9.76177 18.832C9.24614 17.7539 8.9063 16.7578 8.74224 15.8438C8.55474 14.8125 8.63677 14.0273 8.98833 13.4883C9.69145 12.457 10.5704 11.8359 11.625 11.625C12.5157 11.4375 13.3946 11.5664 14.2618 12.0117V9.76172C13.4649 10.1836 12.7383 10.4414 12.0821 10.5352C11.543 10.6289 11.0508 10.5938 10.6055 10.4297C10.254 10.2891 9.94927 10.0898 9.69145 9.83203C9.50395 9.62109 9.33989 9.39844 9.19927 9.16406L9.0938 8.84766L9.30474 8.56641C9.51567 8.37891 9.73833 8.22656 9.9727 8.10938C10.3243 7.94531 10.6875 7.86328 11.0625 7.86328C11.5313 7.86328 12.0118 8.00391 12.504 8.28516C13.0665 8.58984 13.6524 9.08203 14.2618 9.76172V8.25H15.7383V12.0117C16.6055 11.5664 17.4844 11.4375 18.375 11.625C19.4297 11.8359 20.3086 12.457 21.0118 13.4883Z" fill="white"/>
</svg>
