<svg width="14" height="16" viewBox="0 0 14 16" fill="none" xmlns="http://www.w3.org/2000/svg">
<path d="M13.0117 6.48828C13.3633 7.02734 13.4453 7.8125 13.2578 8.84375C13.0937 9.75781 12.7539 10.7539 12.2383 11.832C11.7695 12.8398 11.248 13.7012 10.6738 14.416C10.0996 15.1309 9.61913 15.4883 9.23241 15.4883C8.84569 15.4883 8.52342 15.4414 8.26561 15.3477C8.10155 15.2773 7.91405 15.1719 7.70311 15.0312C7.56249 14.9375 7.4453 14.8672 7.35155 14.8203C7.2578 14.7734 7.14061 14.75 6.99999 14.75C6.85936 14.75 6.74217 14.7734 6.64842 14.8203C6.55467 14.8672 6.43749 14.9375 6.29686 15.0312C6.08592 15.1719 5.89842 15.2773 5.73436 15.3477C5.47655 15.4414 5.15428 15.4883 4.76756 15.4883C4.38085 15.4883 3.90038 15.1309 3.32616 14.416C2.75194 13.7012 2.23046 12.8398 1.76171 11.832C1.24608 10.7539 0.906237 9.75781 0.742174 8.84375C0.554674 7.8125 0.636705 7.02734 0.988268 6.48828C1.69139 5.45703 2.5703 4.83594 3.62499 4.625C4.51561 4.4375 5.39452 4.56641 6.26171 5.01172V2.76172C5.46483 3.18359 4.73827 3.44141 4.08202 3.53516C3.54296 3.62891 3.05077 3.59375 2.60546 3.42969C2.25389 3.28906 1.94921 3.08984 1.69139 2.83203C1.50389 2.62109 1.33983 2.39844 1.19921 2.16406L1.09374 1.84766L1.30467 1.56641C1.51561 1.37891 1.73827 1.22656 1.97264 1.10938C2.32421 0.945312 2.68749 0.863281 3.06249 0.863281C3.53124 0.863281 4.01171 1.00391 4.50389 1.28516C5.06639 1.58984 5.65233 2.08203 6.26171 2.76172V1.25H7.73827V5.01172C8.60546 4.56641 9.48436 4.4375 10.375 4.625C11.4297 4.83594 12.3086 5.45703 13.0117 6.48828Z" fill="#A7B1C2"/>
</svg>
