<svg width="14" height="10" viewBox="0 0 14 10" fill="none" xmlns="http://www.w3.org/2000/svg">
<path d="M4.99102 6.11105C5.44602 6.77605 6.20202 7.17505 7.00002 7.17505C7.79802 7.17505 8.55402 6.77605 9.00902 6.11105C9.26102 5.74005 9.66002 5.50905 10.101 5.45305C9.73702 5.09605 8.40702 4.55005 7.00002 4.55005C5.58602 4.55005 4.26302 5.10305 3.89902 5.45305C4.33302 5.50905 4.73202 5.74005 4.99102 6.11105Z" fill="#EA9F77"/>
<path d="M7 3.8501C7.9665 3.8501 8.75 3.0666 8.75 2.1001C8.75 1.1336 7.9665 0.350098 7 0.350098C6.0335 0.350098 5.25 1.1336 5.25 2.1001C5.25 3.0666 6.0335 3.8501 7 3.8501Z" fill="#EA9F77"/>
<path d="M2.45001 5.25C3.41651 5.25 4.20001 4.4665 4.20001 3.5C4.20001 2.5335 3.41651 1.75 2.45001 1.75C1.48351 1.75 0.700012 2.5335 0.700012 3.5C0.700012 4.4665 1.48351 5.25 2.45001 5.25Z" fill="#EA9F77"/>
<path d="M11.55 5.25C12.5165 5.25 13.3 4.4665 13.3 3.5C13.3 2.5335 12.5165 1.75 11.55 1.75C10.5835 1.75 9.80002 2.5335 9.80002 3.5C9.80002 4.4665 10.5835 5.25 11.55 5.25Z" fill="#EA9F77"/>
<path d="M12.25 5.9502H10.304C9.96101 5.9502 9.63901 6.1252 9.44301 6.4052C8.87601 7.2242 7.95201 7.7002 7.00001 7.7002C6.78301 7.7002 5.42501 7.6792 4.55701 6.4052C4.38901 6.1602 4.08801 5.9502 3.69601 5.9502H1.75001C1.16901 5.9502 0.700012 6.4192 0.700012 7.0002V9.4502H4.90001V8.1412C5.52301 8.5262 6.24401 8.7502 7.00001 8.7502C7.75601 8.7502 8.47701 8.5262 9.10001 8.1412V9.4502H13.3V7.0002C13.3 6.4192 12.831 5.9502 12.25 5.9502Z" fill="#EA9F77"/>
</svg>
