<svg width="22" height="24" viewBox="0 0 22 24" fill="none" xmlns="http://www.w3.org/2000/svg">
<path d="M21.5 24C21.5 24 17.9645 22.6087 15.1047 21.495H3.07775C1.655 21.495 0.5 20.2695 0.5 18.7598V2.733C0.5 1.22475 1.655 0 3.07775 0H18.9215C20.345 0 21.4993 1.224 21.4993 2.73375V16.5368L21.5 24ZM18.3958 15.0135C18.3396 14.9414 18.2691 14.8818 18.1886 14.8383C18.1082 14.7949 18.0196 14.7687 17.9285 14.7613C17.8375 14.7539 17.7458 14.7655 17.6594 14.7953C17.5731 14.8252 17.4938 14.8727 17.4268 14.9347C17.4043 14.9543 15.1655 16.9455 10.9992 16.9455C6.88475 16.9455 4.6115 14.9685 4.571 14.9325C4.50386 14.8707 4.42464 14.8236 4.33835 14.794C4.25206 14.7644 4.16057 14.753 4.06966 14.7605C3.97875 14.7681 3.89038 14.7944 3.81015 14.8378C3.72992 14.8812 3.65955 14.9408 3.6035 15.0128C3.48344 15.1625 3.42474 15.3523 3.43925 15.5438C3.45193 15.7342 3.53731 15.9125 3.67775 16.0417C3.78425 16.1378 6.3305 18.4042 10.9992 18.4042C15.6687 18.4042 18.215 16.1378 18.3215 16.0417C18.4617 15.9124 18.5468 15.7341 18.5592 15.5438C18.5738 15.3527 18.5154 15.1632 18.3958 15.0135Z" fill="white"/>
</svg>
