<svg width="16" height="15" viewBox="0 0 16 15" fill="none" xmlns="http://www.w3.org/2000/svg">
<path d="M15.4883 11.5C15.4883 12.3203 15.1953 13.0234 14.6094 13.6094C14.0234 14.1953 13.3203 14.4883 12.5 14.4883H9.51172C8.66797 14.4883 7.95312 14.1953 7.36719 13.6094C6.78125 13.0234 6.48828 12.3203 6.48828 11.5V9.98828H15.4883V11.5ZM1.98828 0.25H9.51172C9.91016 0.25 10.2559 0.396484 10.5488 0.689453C10.8418 0.982422 10.9883 1.33984 10.9883 1.76172V8.51172H5.01172V12.2383H1.98828C1.58984 12.2383 1.24414 12.0918 0.951172 11.7988C0.658203 11.5059 0.511719 11.1602 0.511719 10.7617V1.76172C0.511719 1.33984 0.658203 0.982422 0.951172 0.689453C1.24414 0.396484 1.58984 0.25 1.98828 0.25ZM1.98828 2.5V4.01172H3.5V2.5H1.98828ZM9.51172 4.01172V2.5H5.01172V4.01172H9.51172ZM1.98828 5.48828V7H3.5V5.48828H1.98828ZM5.01172 5.48828V7H9.51172V5.48828H5.01172ZM1.98828 8.51172V9.98828H3.5V8.51172H1.98828Z" fill="#A7B1C2"/>
</svg>
